<?xml version="1.0" encoding="UTF-8" standalone="no"?>
<!DOCTYPE svg PUBLIC "-//W3C//DTD SVG 1.1//EN"
 "http://www.w3.org/Graphics/SVG/1.1/DTD/svg11.dtd">
<!-- Generated by graphviz version 2.40.1 (20161225.0304)
 -->
<!-- Title: g Pages: 1 -->
<svg width="468pt" height="260pt"
 viewBox="0.00 0.00 467.98 260.00" xmlns="http://www.w3.org/2000/svg" xmlns:xlink="http://www.w3.org/1999/xlink">
<g id="graph0" class="graph" transform="scale(1 1) rotate(0) translate(4 256)">
<title>g</title>
<polygon fill="#ffffff" stroke="transparent" points="-4,4 -4,-256 463.9804,-256 463.9804,4 -4,4"/>
<!-- n58bde2f5c5d2ee9aaa5375949965c9af -->
<g id="node1" class="node">
<title>n58bde2f5c5d2ee9aaa5375949965c9af</title>
<ellipse fill="none" stroke="#000000" cx="216.4913" cy="-234" rx="80.6858" ry="18"/>
<text text-anchor="start" x="162.4913" y="-230.3" font-family="Times,serif" font-size="14.00" fill="#000000">isa(class,class)</text>
</g>
<!-- n50b6253428f4a1730f545c5480010054 -->
<g id="node2" class="node">
<title>n50b6253428f4a1730f545c5480010054</title>
<ellipse fill="none" stroke="#000000" cx="216.4913" cy="-162" rx="42.4939" ry="18"/>
<text text-anchor="start" x="191.9913" y="-158.3" font-family="Times,serif" font-size="14.00" fill="#000000">rdfs(3)</text>
</g>
<!-- n58bde2f5c5d2ee9aaa5375949965c9af&#45;&gt;n50b6253428f4a1730f545c5480010054 -->
<g id="edge1" class="edge">
<title>n58bde2f5c5d2ee9aaa5375949965c9af&#45;&gt;n50b6253428f4a1730f545c5480010054</title>
<path fill="none" stroke="#000000" d="M216.4913,-215.8314C216.4913,-208.131 216.4913,-198.9743 216.4913,-190.4166"/>
<polygon fill="#000000" stroke="#000000" points="219.9914,-190.4132 216.4913,-180.4133 212.9914,-190.4133 219.9914,-190.4132"/>
</g>
<!-- nf9e38f5fe0a7ecfdf880fb76adafea1d -->
<g id="node3" class="node">
<title>nf9e38f5fe0a7ecfdf880fb76adafea1d</title>
<ellipse fill="none" stroke="#000000" cx="97.4913" cy="-90" rx="97.4827" ry="18"/>
<text text-anchor="start" x="30.4913" y="-86.3" font-family="Times,serif" font-size="14.00" fill="#000000">range(range,class)</text>
</g>
<!-- n50b6253428f4a1730f545c5480010054&#45;&gt;nf9e38f5fe0a7ecfdf880fb76adafea1d -->
<g id="edge2" class="edge">
<title>n50b6253428f4a1730f545c5480010054&#45;&gt;nf9e38f5fe0a7ecfdf880fb76adafea1d</title>
<path fill="none" stroke="#000000" d="M192.1228,-147.256C175.569,-137.2402 153.3628,-123.8046 134.622,-112.4656"/>
<polygon fill="#000000" stroke="#000000" points="136.3826,-109.4401 126.0149,-107.258 132.7589,-115.4292 136.3826,-109.4401"/>
</g>
<!-- n88a411de1e1a5d635603d9c79bce84ca -->
<g id="node5" class="node">
<title>n88a411de1e1a5d635603d9c79bce84ca</title>
<ellipse fill="none" stroke="#000000" cx="336.4913" cy="-90" rx="123.4781" ry="18"/>
<text text-anchor="start" x="249.4913" y="-86.3" font-family="Times,serif" font-size="14.00" fill="#000000">range(subClassOf,class)</text>
</g>
<!-- n50b6253428f4a1730f545c5480010054&#45;&gt;n88a411de1e1a5d635603d9c79bce84ca -->
<g id="edge4" class="edge">
<title>n50b6253428f4a1730f545c5480010054&#45;&gt;n88a411de1e1a5d635603d9c79bce84ca</title>
<path fill="none" stroke="#000000" d="M241.0647,-147.256C257.6392,-137.3113 279.833,-123.995 298.6461,-112.7072"/>
<polygon fill="#000000" stroke="#000000" points="300.5201,-115.6645 307.2943,-107.5182 296.9186,-109.662 300.5201,-115.6645"/>
</g>
<!-- n02c0363ddefc3fa8e2a205ec3fe64a38 -->
<g id="node4" class="node">
<title>n02c0363ddefc3fa8e2a205ec3fe64a38</title>
<ellipse fill="none" stroke="#000000" cx="97.4913" cy="-18" rx="63.8893" ry="18"/>
<text text-anchor="start" x="56.4913" y="-14.3" font-family="Times,serif" font-size="14.00" fill="#000000">axiom(rdfs)</text>
</g>
<!-- nf9e38f5fe0a7ecfdf880fb76adafea1d&#45;&gt;n02c0363ddefc3fa8e2a205ec3fe64a38 -->
<g id="edge3" class="edge">
<title>nf9e38f5fe0a7ecfdf880fb76adafea1d&#45;&gt;n02c0363ddefc3fa8e2a205ec3fe64a38</title>
<path fill="none" stroke="#000000" d="M97.4913,-71.8314C97.4913,-64.131 97.4913,-54.9743 97.4913,-46.4166"/>
<polygon fill="#000000" stroke="#000000" points="100.9914,-46.4132 97.4913,-36.4133 93.9914,-46.4133 100.9914,-46.4132"/>
</g>
<!-- n5a6a01acb43d05b55d5c4d73737e01e9 -->
<g id="node6" class="node">
<title>n5a6a01acb43d05b55d5c4d73737e01e9</title>
<ellipse fill="none" stroke="#000000" cx="336.4913" cy="-18" rx="63.8893" ry="18"/>
<text text-anchor="start" x="295.4913" y="-14.3" font-family="Times,serif" font-size="14.00" fill="#000000">axiom(rdfs)</text>
</g>
<!-- n88a411de1e1a5d635603d9c79bce84ca&#45;&gt;n5a6a01acb43d05b55d5c4d73737e01e9 -->
<g id="edge5" class="edge">
<title>n88a411de1e1a5d635603d9c79bce84ca&#45;&gt;n5a6a01acb43d05b55d5c4d73737e01e9</title>
<path fill="none" stroke="#000000" d="M336.4913,-71.8314C336.4913,-64.131 336.4913,-54.9743 336.4913,-46.4166"/>
<polygon fill="#000000" stroke="#000000" points="339.9914,-46.4132 336.4913,-36.4133 332.9914,-46.4133 339.9914,-46.4132"/>
</g>
</g>
</svg>
