<?xml version="1.0" encoding="UTF-8" standalone="no"?>
<!DOCTYPE svg PUBLIC "-//W3C//DTD SVG 1.1//EN"
 "http://www.w3.org/Graphics/SVG/1.1/DTD/svg11.dtd">
<!-- Generated by graphviz version 2.40.1 (20161225.0304)
 -->
<!-- Title: noname Pages: 1 -->
<svg width="378pt" height="260pt"
 viewBox="0.00 0.00 378.13 260.00" xmlns="http://www.w3.org/2000/svg" xmlns:xlink="http://www.w3.org/1999/xlink">
<g id="graph0" class="graph" transform="scale(1 1) rotate(0) translate(4 256)">
<title>noname</title>
<polygon fill="#ffffff" stroke="transparent" points="-4,4 -4,-256 374.1344,-256 374.1344,4 -4,4"/>
<!-- nd3bacb1de46629ddf00c28a788ad1e2c -->
<g id="node1" class="node">
<title>nd3bacb1de46629ddf00c28a788ad1e2c</title>
<ellipse fill="none" stroke="#000000" cx="194.4913" cy="-234" rx="75.2868" ry="18"/>
<text text-anchor="start" x="144.4913" y="-230.3" font-family="Times,serif" font-size="14.00" fill="#000000">≡(class,class)</text>
</g>
<!-- nd6a1a17949514fc6e9947427e8f34072 -->
<g id="node2" class="node">
<title>nd6a1a17949514fc6e9947427e8f34072</title>
<ellipse fill="none" stroke="#000000" cx="194.4913" cy="-162" rx="42.4939" ry="18"/>
<text text-anchor="start" x="169.9913" y="-158.3" font-family="Times,serif" font-size="14.00" fill="#000000">rdfs(3)</text>
</g>
<!-- nd3bacb1de46629ddf00c28a788ad1e2c&#45;&gt;nd6a1a17949514fc6e9947427e8f34072 -->
<g id="edge1" class="edge">
<title>nd3bacb1de46629ddf00c28a788ad1e2c&#45;&gt;nd6a1a17949514fc6e9947427e8f34072</title>
<path fill="none" stroke="#000000" d="M194.4913,-215.8314C194.4913,-208.131 194.4913,-198.9743 194.4913,-190.4166"/>
<polygon fill="#000000" stroke="#000000" points="197.9914,-190.4132 194.4913,-180.4133 190.9914,-190.4133 197.9914,-190.4132"/>
</g>
<!-- nf9e38f5fe0a7ecfdf880fb76adafea1d -->
<g id="node3" class="node">
<title>nf9e38f5fe0a7ecfdf880fb76adafea1d</title>
<ellipse fill="none" stroke="#000000" cx="97.4913" cy="-90" rx="97.4827" ry="18"/>
<text text-anchor="start" x="30.4913" y="-86.3" font-family="Times,serif" font-size="14.00" fill="#000000">range(range,class)</text>
</g>
<!-- nd6a1a17949514fc6e9947427e8f34072&#45;&gt;nf9e38f5fe0a7ecfdf880fb76adafea1d -->
<g id="edge2" class="edge">
<title>nd6a1a17949514fc6e9947427e8f34072&#45;&gt;nf9e38f5fe0a7ecfdf880fb76adafea1d</title>
<path fill="none" stroke="#000000" d="M173.4438,-146.3771C160.5882,-136.8348 143.8957,-124.4445 129.4348,-113.7106"/>
<polygon fill="#000000" stroke="#000000" points="131.3399,-110.7659 121.2241,-107.6161 127.1677,-116.3867 131.3399,-110.7659"/>
</g>
<!-- n7d4961a6e8a7916a5d0088739dd880ac -->
<g id="node5" class="node">
<title>n7d4961a6e8a7916a5d0088739dd880ac</title>
<ellipse fill="none" stroke="#000000" cx="291.4913" cy="-90" rx="78.7863" ry="18"/>
<text text-anchor="start" x="238.9913" y="-86.3" font-family="Times,serif" font-size="14.00" fill="#000000">range(⊆,class)</text>
</g>
<!-- nd6a1a17949514fc6e9947427e8f34072&#45;&gt;n7d4961a6e8a7916a5d0088739dd880ac -->
<g id="edge4" class="edge">
<title>nd6a1a17949514fc6e9947427e8f34072&#45;&gt;n7d4961a6e8a7916a5d0088739dd880ac</title>
<path fill="none" stroke="#000000" d="M215.5389,-146.3771C228.4876,-136.7656 245.3291,-124.2648 259.862,-113.4775"/>
<polygon fill="#000000" stroke="#000000" points="262.1614,-116.1295 268.105,-107.3589 257.9892,-110.5087 262.1614,-116.1295"/>
</g>
<!-- n02c0363ddefc3fa8e2a205ec3fe64a38 -->
<g id="node4" class="node">
<title>n02c0363ddefc3fa8e2a205ec3fe64a38</title>
<ellipse fill="none" stroke="#000000" cx="97.4913" cy="-18" rx="63.8893" ry="18"/>
<text text-anchor="start" x="56.4913" y="-14.3" font-family="Times,serif" font-size="14.00" fill="#000000">axiom(rdfs)</text>
</g>
<!-- nf9e38f5fe0a7ecfdf880fb76adafea1d&#45;&gt;n02c0363ddefc3fa8e2a205ec3fe64a38 -->
<g id="edge3" class="edge">
<title>nf9e38f5fe0a7ecfdf880fb76adafea1d&#45;&gt;n02c0363ddefc3fa8e2a205ec3fe64a38</title>
<path fill="none" stroke="#000000" d="M97.4913,-71.8314C97.4913,-64.131 97.4913,-54.9743 97.4913,-46.4166"/>
<polygon fill="#000000" stroke="#000000" points="100.9914,-46.4132 97.4913,-36.4133 93.9914,-46.4133 100.9914,-46.4132"/>
</g>
<!-- nea8c766c7d084e49d998a87a9d1d1e66 -->
<g id="node6" class="node">
<title>nea8c766c7d084e49d998a87a9d1d1e66</title>
<ellipse fill="none" stroke="#000000" cx="291.4913" cy="-18" rx="63.8893" ry="18"/>
<text text-anchor="start" x="250.4913" y="-14.3" font-family="Times,serif" font-size="14.00" fill="#000000">axiom(rdfs)</text>
</g>
<!-- n7d4961a6e8a7916a5d0088739dd880ac&#45;&gt;nea8c766c7d084e49d998a87a9d1d1e66 -->
<g id="edge5" class="edge">
<title>n7d4961a6e8a7916a5d0088739dd880ac&#45;&gt;nea8c766c7d084e49d998a87a9d1d1e66</title>
<path fill="none" stroke="#000000" d="M291.4913,-71.8314C291.4913,-64.131 291.4913,-54.9743 291.4913,-46.4166"/>
<polygon fill="#000000" stroke="#000000" points="294.9914,-46.4132 291.4913,-36.4133 287.9914,-46.4133 294.9914,-46.4132"/>
</g>
</g>
</svg>
