<?xml version="1.0" encoding="UTF-8" standalone="no"?>
<!DOCTYPE svg PUBLIC "-//W3C//DTD SVG 1.1//EN"
 "http://www.w3.org/Graphics/SVG/1.1/DTD/svg11.dtd">
<!-- Generated by graphviz version 2.43.0 (0)
 -->
<!-- Title: noname Pages: 1 -->
<svg width="306pt" height="260pt"
 viewBox="0.00 0.00 306.39 260.00" xmlns="http://www.w3.org/2000/svg" xmlns:xlink="http://www.w3.org/1999/xlink">
<g id="graph0" class="graph" transform="scale(1 1) rotate(0) translate(4 256)">
<title>noname</title>
<polygon fill="white" stroke="#000000" points="-4,4 -4,-256 302.39,-256 302.39,4 -4,4"/>
<!-- nfafa2947c26390b982f2ef358299e6d5 -->
<g id="node1" class="node">
<title>nfafa2947c26390b982f2ef358299e6d5</title>
<ellipse fill="none" stroke="black" cx="154.39" cy="-234" rx="62.29" ry="18"/>
<text text-anchor="start" x="114.39" y="-230.3" font-family="Times,serif" font-size="14.00">∈(class,class)</text>
</g>
<!-- n5812527442074b1c46df2e1201f640b4 -->
<g id="node2" class="node">
<title>n5812527442074b1c46df2e1201f640b4</title>
<ellipse fill="none" stroke="black" cx="154.39" cy="-162" rx="34.39" ry="18"/>
<text text-anchor="start" x="135.89" y="-158.3" font-family="Times,serif" font-size="14.00">rdfs(3)</text>
</g>
<!-- nfafa2947c26390b982f2ef358299e6d5&#45;&gt;n5812527442074b1c46df2e1201f640b4 -->
<g id="edge1" class="edge">
<title>nfafa2947c26390b982f2ef358299e6d5&#45;&gt;n5812527442074b1c46df2e1201f640b4</title>
<path fill="none" stroke="black" d="M154.39,-215.7C154.39,-207.98 154.39,-198.71 154.39,-190.11"/>
<polygon fill="black" stroke="black" points="157.89,-190.1 154.39,-180.1 150.89,-190.1 157.89,-190.1"/>
</g>
<!-- nf9e38f5fe0a7ecfdf880fb76adafea1d -->
<g id="node3" class="node">
<title>nf9e38f5fe0a7ecfdf880fb76adafea1d</title>
<ellipse fill="none" stroke="black" cx="75.39" cy="-90" rx="75.29" ry="18"/>
<text text-anchor="start" x="25.39" y="-86.3" font-family="Times,serif" font-size="14.00">range(range,class)</text>
</g>
<!-- n5812527442074b1c46df2e1201f640b4&#45;&gt;nf9e38f5fe0a7ecfdf880fb76adafea1d -->
<g id="edge2" class="edge">
<title>n5812527442074b1c46df2e1201f640b4&#45;&gt;nf9e38f5fe0a7ecfdf880fb76adafea1d</title>
<path fill="none" stroke="black" d="M137.64,-146.15C127.16,-136.87 113.45,-124.72 101.56,-114.18"/>
<polygon fill="black" stroke="black" points="103.86,-111.55 94.06,-107.54 99.22,-116.79 103.86,-111.55"/>
</g>
<!-- n7d4961a6e8a7916a5d0088739dd880ac -->
<g id="node5" class="node">
<title>n7d4961a6e8a7916a5d0088739dd880ac</title>
<ellipse fill="none" stroke="black" cx="233.39" cy="-90" rx="64.99" ry="18"/>
<text text-anchor="start" x="191.39" y="-86.3" font-family="Times,serif" font-size="14.00">range(⊆,class)</text>
</g>
<!-- n5812527442074b1c46df2e1201f640b4&#45;&gt;n7d4961a6e8a7916a5d0088739dd880ac -->
<g id="edge4" class="edge">
<title>n5812527442074b1c46df2e1201f640b4&#45;&gt;n7d4961a6e8a7916a5d0088739dd880ac</title>
<path fill="none" stroke="black" d="M171.15,-146.15C181.7,-136.81 195.54,-124.54 207.48,-113.96"/>
<polygon fill="black" stroke="black" points="209.84,-116.54 215.01,-107.29 205.2,-111.3 209.84,-116.54"/>
</g>
<!-- n02c0363ddefc3fa8e2a205ec3fe64a38 -->
<g id="node4" class="node">
<title>n02c0363ddefc3fa8e2a205ec3fe64a38</title>
<ellipse fill="none" stroke="black" cx="75.39" cy="-18" rx="52.79" ry="18"/>
<text text-anchor="start" x="42.89" y="-14.3" font-family="Times,serif" font-size="14.00">axiom(rdfs)</text>
</g>
<!-- nf9e38f5fe0a7ecfdf880fb76adafea1d&#45;&gt;n02c0363ddefc3fa8e2a205ec3fe64a38 -->
<g id="edge3" class="edge">
<title>nf9e38f5fe0a7ecfdf880fb76adafea1d&#45;&gt;n02c0363ddefc3fa8e2a205ec3fe64a38</title>
<path fill="none" stroke="black" d="M75.39,-71.7C75.39,-63.98 75.39,-54.71 75.39,-46.11"/>
<polygon fill="black" stroke="black" points="78.89,-46.1 75.39,-36.1 71.89,-46.1 78.89,-46.1"/>
</g>
<!-- nea8c766c7d084e49d998a87a9d1d1e66 -->
<g id="node6" class="node">
<title>nea8c766c7d084e49d998a87a9d1d1e66</title>
<ellipse fill="none" stroke="black" cx="233.39" cy="-18" rx="52.79" ry="18"/>
<text text-anchor="start" x="200.89" y="-14.3" font-family="Times,serif" font-size="14.00">axiom(rdfs)</text>
</g>
<!-- n7d4961a6e8a7916a5d0088739dd880ac&#45;&gt;nea8c766c7d084e49d998a87a9d1d1e66 -->
<g id="edge5" class="edge">
<title>n7d4961a6e8a7916a5d0088739dd880ac&#45;&gt;nea8c766c7d084e49d998a87a9d1d1e66</title>
<path fill="none" stroke="black" d="M233.39,-71.7C233.39,-63.98 233.39,-54.71 233.39,-46.11"/>
<polygon fill="black" stroke="black" points="236.89,-46.1 233.39,-36.1 229.89,-46.1 236.89,-46.1"/>
</g>
</g>
</svg>
